<svg xmlns="http://www.w3.org/2000/svg" width="270" height="195" viewBox="0 0 270 195">
    <defs>
        <style>
            .cls-3{fill:none}.cls-2{fill:#e6f4e9}.cls-3{stroke:#b9efd5;stroke-miterlimit:10;stroke-width:.777px}.cls-6{fill:#d5e9f7}.cls-7{fill:#e2f2ff}.cls-8{fill:#fff}.cls-12{fill:#94dcb9}
        </style>
    </defs>
    <g id="Group_75806" transform="translate(1606.104 352.556)">
        <path id="Rectangle_6782" fill="none" d="M0 0H270V195H0z" transform="translate(-1606.104 -352.556)"/>
        <g id="Group_75805">
            <g id="Group_75795">
                <g id="Group_75792">
                    <path id="Path_56226" d="M-1544.052-164.7s-.777-28.617-14.327-39.252c-30.115-23.635-61.323 16.349-41.492 17.713s40.643-11.919 46.873 9.847 8.946 11.692 8.946 11.692z" class="cls-2"/>
                    <path id="Path_56227" d="M-1595.227-195.967s33.417-17.057 45.793 14.016" class="cls-3"/>
                </g>
                <g id="Group_75793">
                    <path id="Path_56228" d="M-1392.243-164.72s1.14-25.1 13.472-34.354c27.408-20.558 54.815 14.708 36.986 15.787s-26.079-12.375-32.011 6.686c-1.483 4.765-3.377 7.89-5.384 9.9-6.02 6.019-13.063 1.981-13.063 1.981z" class="cls-2"/>
                    <path id="Path_56229" fill="none" stroke="#b9efd5" stroke-miterlimit="10" stroke-width="0.69px" d="M-1345.806-191.847s-29.744-15.164-41.337 12.025"/>
                </g>
                <g id="Group_75794">
                    <path id="Path_56230" d="M-1549.434-187.769s.469-12.731-8.559-22.188-11.557-24.008-10.112-31.1 9.727-3.24 17.774 4.928 9.659 51.545 2.384 58-1.487-9.64-1.487-9.64z" class="cls-2"/>
                    <path id="Path_56231" d="M-1558.868-232.113s14.959 12.973 12.611 43.253" class="cls-3"/>
                </g>
                <path id="Path_56232" fill="none" stroke="#94dcb9" stroke-miterlimit="10" stroke-width="0.941px" d="M-1391.75-180.636s15.624-34.892 41.359-46.13"/>
            </g>
            <g id="Group_75801">
                <g id="Group_75796">
                    <path id="Rectangle_6783" d="M0 0H18.915V186.157H0z" class="cls-6" transform="translate(-1546.268 -347.831)"/>
                    <path id="Rectangle_6784" d="M0 0H18.915V186.157H0z" class="cls-6" transform="translate(-1402.004 -348.606)"/>
                </g>
                <g id="Group_75798">
                    <g id="Group_75797">
                        <path id="Path_56233" d="M-1458.043-224.767h22.547l17.3-45.631h-22.547z" class="cls-7"/>
                        <path id="Path_56234" d="M-1511.161-224.767h22.546l17.3-45.631h-22.547z" class="cls-7"/>
                        <path id="Path_56235" d="M-1565.183-224.767h23.45l17.3-45.631h-40.752z" class="cls-7"/>
                        <path id="Path_56236" d="M-1387.622-270.4l-17.3 45.631h40.751V-270.4z" class="cls-7"/>
                    </g>
                    <path id="Path_56237" d="M-1524.432-270.4l-17.3 45.631h30.573l17.3-45.631z" class="cls-8"/>
                    <path id="Path_56238" d="M-1471.313-270.4l-17.3 45.631h30.572l17.3-45.631z" class="cls-8"/>
                    <path id="Path_56239" d="M-1418.195-270.4l-17.3 45.631h30.572l17.3-45.631z" class="cls-8"/>
                </g>
                <g id="Group_75800">
                    <g id="Group_75799">
                        <path id="Path_56240" d="M-1458.043-287.77h22.547l17.3-45.631h-22.547z" class="cls-7"/>
                        <path id="Path_56241" d="M-1511.161-287.77h22.546l17.3-45.631h-22.547z" class="cls-7"/>
                        <path id="Path_56242" d="M-1565.183-287.77h23.45l17.3-45.631h-40.752z" class="cls-7"/>
                        <path id="Path_56243" d="M-1387.622-333.4l-17.3 45.631h40.751V-333.4z" class="cls-7"/>
                    </g>
                    <path id="Path_56244" d="M-1524.432-333.4l-17.3 45.631h30.573l17.3-45.631z" class="cls-8"/>
                    <path id="Path_56245" d="M-1471.313-333.4l-17.3 45.631h30.572l17.3-45.631z" class="cls-8"/>
                    <path id="Path_56246" d="M-1418.195-333.4l-17.3 45.631h30.572l17.3-45.631z" class="cls-8"/>
                </g>
            </g>
            <g id="Group_75803">
                <path id="Rectangle_6785" fill="#193d7e" d="M0 0H7.219V93.147H0z" transform="translate(-1468.289 -254.821)"/>
                <path id="Path_56247" fill="#f58d02" d="M-1470.412-246.687l-29.578-29.792a8.209 8.209 0 0 1 0-11.551l29.578-29.792a8.067 8.067 0 0 1 11.468 0l29.577 29.792a8.209 8.209 0 0 1 0 11.551l-29.577 29.792a8.067 8.067 0 0 1-11.468 0z"/>
                <g id="Group_75802">
                    <path id="Path_56248" d="M-1434.215-289.038l-23.73-23.9a9.431 9.431 0 0 0-6.734-2.81 9.433 9.433 0 0 0-6.737 2.81l-23.727 23.9a9.558 9.558 0 0 0-2.789 6.784 9.569 9.569 0 0 0 2.786 6.783l23.73 23.9a9.429 9.429 0 0 0 6.737 2.81 9.427 9.427 0 0 0 6.734-2.81l23.73-23.9a9.565 9.565 0 0 0 2.79-6.783 9.567 9.567 0 0 0-2.79-6.784zm-2 11.552l-23.73 23.9a6.818 6.818 0 0 1-9.467 0l-23.73-23.9a6.784 6.784 0 0 1 0-9.536l23.728-23.9a6.818 6.818 0 0 1 9.467 0l23.732 23.9a6.723 6.723 0 0 1 1.961 4.768 6.718 6.718 0 0 1-1.964 4.768z" class="cls-8"/>
                    <path id="Path_56249" d="M-1467.437-274.814a1 1 0 0 0 .464.361 3.439 3.439 0 0 0 .889.227 10.075 10.075 0 0 0 1.406.08 10.151 10.151 0 0 0 1.393-.08 3.466 3.466 0 0 0 .9-.227 1 1 0 0 0 .464-.361 1.1 1.1 0 0 0 .159-.481l.69-24.265a1.044 1.044 0 0 0-.172-.6 1.292 1.292 0 0 0-.584-.428 4.449 4.449 0 0 0-1.1-.267 13.525 13.525 0 0 0-1.751-.093 15.912 15.912 0 0 0-1.765.08 4.127 4.127 0 0 0-1.114.254 1.151 1.151 0 0 0-.57.44 1.183 1.183 0 0 0-.159.615l.689 24.265a1.1 1.1 0 0 0 .161.48z" class="cls-8"/>
                    <path id="Path_56250" d="M-1461.72-270.578a2.436 2.436 0 0 0-1.154-.668 6.81 6.81 0 0 0-1.8-.2 6.971 6.971 0 0 0-1.818.2 2.352 2.352 0 0 0-1.154.668 2.665 2.665 0 0 0-.6 1.229 8.7 8.7 0 0 0-.172 1.884 8.356 8.356 0 0 0 .172 1.844 2.559 2.559 0 0 0 .6 1.2 2.406 2.406 0 0 0 1.154.655 6.971 6.971 0 0 0 1.818.2 6.81 6.81 0 0 0 1.8-.2 2.494 2.494 0 0 0 1.154-.655 2.492 2.492 0 0 0 .61-1.2 8.357 8.357 0 0 0 .173-1.844 8.7 8.7 0 0 0-.173-1.884 2.593 2.593 0 0 0-.61-1.229z" class="cls-8"/>
                </g>
            </g>
            <path id="Line_231" fill="none" stroke="#193d7e" stroke-miterlimit="10" stroke-width="0.996px" d="M0 0L196.825 0" transform="translate(-1563.091 -161.674)"/>
            <g id="Group_75804">
                <path id="Path_56251" d="M-1346.587-226.782a16.373 16.373 0 0 1-9.374 2.882 16.607 16.607 0 0 1 5.388-8.247 16.368 16.368 0 0 1 9.374-2.881 16.606 16.606 0 0 1-5.388 8.246z" class="cls-12"/>
                <path id="Path_56252" d="M-1353.3-214.8a16.443 16.443 0 0 1-8.64-4.661 16.369 16.369 0 0 1 9.6-1.97 16.438 16.438 0 0 1 8.639 4.661 16.367 16.367 0 0 1-9.599 1.97z" class="cls-12"/>
                <path id="Path_56253" d="M-1357.2-227.828a16.577 16.577 0 0 1-5.431 8.218 16.685 16.685 0 0 1-1.029-9.817 16.578 16.578 0 0 1 5.431-8.218 16.685 16.685 0 0 1 1.029 9.817z" class="cls-12"/>
                <path id="Path_56254" d="M-1362.662-206.017a16.436 16.436 0 0 1-8.64-4.661 16.363 16.363 0 0 1 9.6-1.969 16.431 16.431 0 0 1 8.639 4.661 16.37 16.37 0 0 1-9.599 1.969z" class="cls-12"/>
                <path id="Path_56255" d="M-1369.962-197.532a16.443 16.443 0 0 1-8.639-4.661 16.363 16.363 0 0 1 9.6-1.969 16.435 16.435 0 0 1 8.639 4.661 16.372 16.372 0 0 1-9.6 1.969z" class="cls-12"/>
                <path id="Path_56256" d="M-1367.34-219.515a16.607 16.607 0 0 1-4.66 8.684 16.679 16.679 0 0 1-1.918-9.681 16.606 16.606 0 0 1 4.66-8.684 16.679 16.679 0 0 1 1.918 9.681z" class="cls-12"/>
                <path id="Path_56257" d="M-1376.666-212.456a16.675 16.675 0 0 1-2.058 9.652 16.607 16.607 0 0 1-4.534-8.752 16.67 16.67 0 0 1 2.058-9.651 16.609 16.609 0 0 1 4.534 8.751z" class="cls-12"/>
            </g>
        </g>
    </g>
</svg>
